<svg xmlns="http://www.w3.org/2000/svg" viewBox="0 0 53.65 53.63"><defs><style>.cls-1{fill:#8B008B;fill-rule:evenodd;}</style></defs><title>Normalbus (4)</title><g id="Layer_2" data-name="Layer 2"><g id="Normalbus"><g id="Normalbus-2" data-name="Normalbus"><path class="cls-1" d="M52,13.41H49.32c0-.29,0-.56,0-.83L48.8,3.34A3.59,3.59,0,0,0,45.27,0H8.38A3.59,3.59,0,0,0,4.85,3.34l-.48,9.24c0,.27,0,.54,0,.83H1.68A1.68,1.68,0,0,0,0,15.08v5a7.7,7.7,0,0,0,.21,1.66l.43,1.7a1.12,1.12,0,0,0,1,.81H4.19v21A3.36,3.36,0,0,0,7.55,48.6h.83V52.8a.84.84,0,0,0,.84.83h5a.84.84,0,0,0,.84-.83V48.61H38.55V52.8a.83.83,0,0,0,.83.83h5a.84.84,0,0,0,.84-.83V48.61h.83a3.36,3.36,0,0,0,3.36-3.35V24.3H52A1.14,1.14,0,0,0,53,23.49l.43-1.7a8.37,8.37,0,0,0,.2-1.66v-5A1.68,1.68,0,0,0,52,13.41M11.74,3.35a.84.84,0,0,1,.83-.84H41.08a.84.84,0,0,1,.83.84V5a.84.84,0,0,1-.83.84H12.57A.84.84,0,0,1,11.74,5Zm6.7,39.38a.84.84,0,0,1-.84.84H10.9a1.09,1.09,0,0,1-1-.82l-.5-2.54a.66.66,0,0,1,.67-.83h7.55a.84.84,0,0,1,.83.84Zm25.83-2.52-.51,2.54a1.08,1.08,0,0,1-1,.82H36a.84.84,0,0,1-.83-.84V40.22a.84.84,0,0,1,.83-.84h7.55A.67.67,0,0,1,44.27,40.21Zm1.83-9.1c0,1.57-1.66,4.19-19.27,4.19h0c-17.62,0-19.28-2.62-19.28-4.19v-21A1.68,1.68,0,0,1,9.22,8.38H44.43a1.68,1.68,0,0,1,1.67,1.68Z"/></g></g></g></svg>