<svg xmlns="http://www.w3.org/2000/svg" viewBox="0 0 73.22 53.63"><defs><style>.cls-1,.cls-2{fill:#FF0000;}.cls-1{fill-rule:evenodd;}</style></defs><title>ArticulatedBus (3)</title><g id="Layer_2" data-name="Layer 2"><g id="ArticulatedBus"><g id="ArticulatedBus-2" data-name="ArticulatedBus"><path class="cls-1" d="M52,13.41H49.32c0-.29,0-.56,0-.83L48.8,3.34A3.59,3.59,0,0,0,45.27,0H8.38A3.59,3.59,0,0,0,4.85,3.34l-.48,9.24c0,.27,0,.54,0,.83H1.68A1.68,1.68,0,0,0,0,15.08v5a7.7,7.7,0,0,0,.21,1.66l.43,1.7a1.12,1.12,0,0,0,1,.81H4.19v21A3.36,3.36,0,0,0,7.55,48.6h.83V52.8a.84.84,0,0,0,.84.83h5a.84.84,0,0,0,.84-.83V48.61H38.55V52.8a.83.83,0,0,0,.83.83h5a.84.84,0,0,0,.84-.83V48.61h.83a3.36,3.36,0,0,0,3.36-3.35V24.3H52A1.14,1.14,0,0,0,53,23.49l.43-1.7a8.37,8.37,0,0,0,.2-1.66v-5A1.68,1.68,0,0,0,52,13.41M11.74,3.35a.84.84,0,0,1,.83-.84H41.08a.84.84,0,0,1,.83.84V5a.84.84,0,0,1-.83.84H12.57A.84.84,0,0,1,11.74,5Zm6.7,39.38a.84.84,0,0,1-.84.84H10.9a1.09,1.09,0,0,1-1-.82l-.5-2.54a.66.66,0,0,1,.67-.83h7.55a.84.84,0,0,1,.83.84Zm25.83-2.52-.51,2.54a1.08,1.08,0,0,1-1,.82H36a.84.84,0,0,1-.83-.84V40.22a.84.84,0,0,1,.83-.84h7.55A.67.67,0,0,1,44.27,40.21Zm1.83-9.1c0,1.57-1.66,4.19-19.27,4.19h0c-17.62,0-19.28-2.62-19.28-4.19v-21A1.68,1.68,0,0,1,9.22,8.38H44.43a1.68,1.68,0,0,1,1.67,1.68Z"/><path class="cls-2" d="M50.9,42.8a.13.13,0,0,1-.1,0,.15.15,0,0,1,0-.21,2.45,2.45,0,0,0,.72-1.74L51,8a2.58,2.58,0,0,0-.89-1.8.16.16,0,0,1,0-.21.15.15,0,0,1,.21,0,2.92,2.92,0,0,1,1,2l.51,32.81A2.7,2.7,0,0,1,51,42.76.12.12,0,0,1,50.9,42.8Z"/><path class="cls-2" d="M52.48,42.27a.16.16,0,0,1-.1-.05.13.13,0,0,1,0-.2,2.45,2.45,0,0,0,.73-1.74l-.52-32a2.66,2.66,0,0,0-.9-1.81.15.15,0,0,1,0-.21.13.13,0,0,1,.2,0,2.88,2.88,0,0,1,1,2l.52,32a2.74,2.74,0,0,1-.81,1.95A.16.16,0,0,1,52.48,42.27Z"/><path class="cls-2" d="M54.07,41.64a.16.16,0,0,1-.11,0,.15.15,0,0,1,0-.2,2.45,2.45,0,0,0,.73-1.74l-.52-31a2.58,2.58,0,0,0-.9-1.81.14.14,0,0,1,0-.2.15.15,0,0,1,.21,0,2.93,2.93,0,0,1,1,2l.52,31a2.74,2.74,0,0,1-.81,2A.14.14,0,0,1,54.07,41.64Z"/><path class="cls-1" d="M72.27,11,56.88,7.32a7.34,7.34,0,0,0-1.68-.19H55a1.77,1.77,0,0,1,.75,1.27s.52,29.51.52,31a2.55,2.55,0,0,1-.48,1.82l5.76-1.29c.29,1.64.87,2.75,2,2.75h3c.92,0,1.67-2.5,1.67-5.59s-.91-5.59-2.11-5.59h-1a1.65,1.65,0,0,1,1-.49c1.23-.15,2.78,1.27,2.65,7.32l3.57-.84a1.15,1.15,0,0,0,.89-1.12V12.88C73.18,12.13,73.12,11.38,72.27,11ZM57.66,30.48,57.38,10.4l3.21.63.16,19.07Zm8.77,2.69c.57,0,1,1.75,1,3.9S67,41,66.43,41s-1-1.75-1-3.9S65.85,33.17,66.43,33.17Zm4.94-4.37-7.65.94V11.65l7.65,1.52Z"/></g></g></g></svg>